<?xml version="1.0" encoding="utf-8"?>
<!-- Generator: Adobe Illustrator 24.1.0, SVG Export Plug-In . SVG Version: 6.00 Build 0)  -->
<svg version="1.1" id="Layer_1" xmlns="http://www.w3.org/2000/svg" xmlns:xlink="http://www.w3.org/1999/xlink" x="0px" y="0px"
	 viewBox="0 0 83.1 79.9" style="enable-background:new 0 0 83.1 79.9;" xml:space="preserve">
<style type="text/css">
	.st0{fill:#8BB74D;}
	.st1{fill:none;}
</style>
<polyline class="st0" points="63.2,40.7 47,57 40.4,50.5 36,54.9 47,66 67.7,45.1 "/>
<path class="st0" d="M60.2,22.5l-8.4-4.4V6.7h-8.3v7.1L30.1,6.7L0,22.5v6.3h3.6v34.9H0v9.5h30.9c-2.7-4-4.2-8.8-4.2-14
	c0-14.1,11.4-25.5,25.5-25.5c2,0,4,0.3,5.9,0.7"/>
<rect x="14.8" y="31.3" class="st0" width="14.3" height="14.3"/>
<polyline class="st1" points="83.1,0 1.8,0 1.8,79.9 83.1,79.9 "/>
</svg>
