<?xml version="1.0" encoding="utf-8"?>
<!-- Generator: Adobe Illustrator 24.0.0, SVG Export Plug-In . SVG Version: 6.00 Build 0)  -->
<svg version="1.1" id="Layer_1" xmlns="http://www.w3.org/2000/svg" xmlns:xlink="http://www.w3.org/1999/xlink" x="0px" y="0px"
	 viewBox="0 0 475.2 475.1" style="enable-background:new 0 0 475.2 475.1;" xml:space="preserve">
<style type="text/css">
	.st0{fill:#4E5663;}
</style>
<path class="st0" d="M341.8,475.1c-14.7,0.7-33-6.1-51-13.7c-141-59.2-235-162.1-284.3-306.3c-12.4-36.2-7-70.3,14.9-101.6
	c8.5-12.1,17.3-24.1,27-35.3C59.6,5.4,73.9-1.5,91.4,0.3c10.5,1.1,19.8,5.2,27.2,12.5c22.6,22.1,45.5,44.1,67.1,67.2
	c19.3,20.6,17.8,47.3-2.3,68.1c-12.9,13.3-26,26.3-39.2,39.3c-2.7,2.6-3.3,4.7-1.5,8.1c8.7,16.6,16.7,33.7,26.1,50
	c13.4,23.4,31.8,42.6,54.7,56.6c18.3,11.2,37.6,20.7,56.4,31c2.7,1.5,4.6,1.1,6.9-1.2c12.9-13.1,25.9-25.9,38.9-38.8
	c22.9-22.7,50.5-22.9,73.3-0.3c20.1,19.8,40,39.7,59.8,59.7c14.2,14.3,20.4,31.1,14,51c-3,9.2-8.2,17.3-15.7,23.4
	c-21.1,17-44.1,31.1-69.1,41.5C375,473.6,361.1,474.8,341.8,475.1z M342.7,450c18.5-0.3,32.5-1.8,45-8.8
	c15.6-8.6,30.6-18.1,45.7-27.6c3.9-2.4,7.5-5.7,10.4-9.2c8.8-10.5,8.9-22.1-0.6-31.9c-21.3-21.8-42.8-43.4-64.7-64.7
	c-9.6-9.4-21.2-9-31.5-0.5c-1.7,1.4-3.2,2.9-4.7,4.4c-13.6,13.5-27.2,27-40.7,40.6c-7.8,7.8-16.8,9.8-27,5.5
	c-25.6-10.7-49.8-23.8-72.4-40c-17.6-12.7-32.9-27.6-45.4-45.3c-15.9-22.6-28.6-46.8-38.9-72.4c-4.2-10.4-2.1-19.4,5.9-27.3
	c14-13.8,27.9-27.7,41.7-41.8c11.8-12.1,12.1-24.2,0.6-36c-20.4-20.8-41-41.4-61.9-61.9C92.6,22,80,22.2,68.6,33.2
	c-2.2,2.1-4.3,4.2-6.1,6.6c-8.4,11.4-17.1,22.6-24.8,34.5c-11.4,17.7-14.7,37.6-11.2,58c3.6,21.4,12.5,41.4,21.4,61.1
	c53.6,118,140.5,201,261.3,248.4C321.3,446.5,333.7,450.4,342.7,450z"/>
</svg>
