<?xml version="1.0" encoding="utf-8"?>
<!-- Generator: Adobe Illustrator 24.1.0, SVG Export Plug-In . SVG Version: 6.00 Build 0)  -->
<svg version="1.1" id="Layer_1" xmlns="http://www.w3.org/2000/svg" xmlns:xlink="http://www.w3.org/1999/xlink" x="0px" y="0px"
	 viewBox="0 0 70.8 64" style="enable-background:new 0 0 70.8 64;" xml:space="preserve">
<style type="text/css">
	.st0{clip-path:url(#SVGID_2_);fill:#8BB74D;}
</style>
<g>
	<defs>
		<rect id="SVGID_1_" width="70.8" height="64"/>
	</defs>
	<clipPath id="SVGID_2_">
		<use xlink:href="#SVGID_1_"  style="overflow:visible;"/>
	</clipPath>
	<path class="st0" d="M19.7,2.6c-0.3,0-0.5,0.1-0.8,0.2C7.4,8.1,0,19.6,0,32c0,8.5,3.5,16.7,9.6,22.3l1.7,1.5l-8,8L21.3,64
		l-0.1-18.3l-7.7,7.5L12,51.4C6.8,45.7,4.2,39.2,4.2,32c0-10.9,6.2-20.7,15.8-25.1c1-0.5,1.3-1.1,1.3-1.8V4.2c0-0.8-0.5-1.3-0.7-1.4
		C20.3,2.6,20,2.6,19.7,2.6"/>
	<path class="st0" d="M51,57c-1,0.7-1.4,1.3-1.5,1.5l0,0.8c0,0.8,0.5,1.3,0.7,1.4c0.5,0.3,1.1,0.3,1.7,0
		c11.5-4.9,18.9-16.4,18.9-29.2c0-8.5-3.5-16.7-9.6-22.3l-1.7-1.5L67.3,0H49.1l0.1,18.3l7.6-7.4l1.6,1.6c5.3,5.3,8.3,12.4,8.3,19.5
		C66.7,42.8,60.5,52.6,51,57"/>
	<path class="st0" d="M35.8,47.9c-0.7,1.7-3,1-3-0.7v-3.4v-8.4h-4c-1.3,0-2-1.3-1.3-2.4l9.1-16.9c0.7-1.7,3-1,3,0.7v11.8h4
		c1.3,0,2,1.3,1.3,2.4l-6.7,12.8L35.8,47.9z"/>
</g>
</svg>
