<?xml version="1.0" encoding="UTF-8"?> <!-- Generator: Adobe Illustrator 24.2.1, SVG Export Plug-In . SVG Version: 6.00 Build 0) --> <svg xmlns="http://www.w3.org/2000/svg" xmlns:xlink="http://www.w3.org/1999/xlink" version="1.1" id="Layer_1" x="0px" y="0px" viewBox="0 0 2426.6 429.9" style="enable-background:new 0 0 2426.6 429.9;" xml:space="preserve"> <style type="text/css"> .st0{fill-rule:evenodd;clip-rule:evenodd;} </style> <g> <path class="st0" d="M2198.9,328.1h92.2V0h-92.2V328.1z M2426.6,0v328.1h-92.2V0H2426.6z M196.6,127.4H122V0H0v328.1h122V165.4 h74.6v162.7h122V0h-122V127.4z M769.3,122l-7.5-21.7H661.6v227.8h100.3V191.1c0-29.8,19-46.1,35.3-46.1c13.5,0,31.2,2.7,31.2,32.5 v150.5h100.3V180.3C928.6,97.6,835.8,65.1,769.3,122L769.3,122z M1799.6,232.5l-46.8-132.2h-68.4l-46.8,137.6l-48.8-137.6h-134.2 l-48.1,115.9l-67.8-115.9h-114.6l134.9,230.5l-17.6,43.4c-6.1,13.6-20.7,14.2-23.6,1.3c0-23.3-18.9-42.2-42.2-42.1 c-23.3,0-42.1,18.9-42.1,42.1c0.2,24.4,24.6,56.3,72.7,54.2c48.1-2,68.4-42,75.2-59l111.5-269.6l80.4,226.9h73.2l44.7-130.8 l46.1,130.8h69.1l78-227.8h-40L1799.6,232.5L1799.6,232.5z M491.4,88.7c-76.8,0-139,57.1-139,127.5s62.2,127.5,139,127.5 s139-57.1,139-127.5S568.2,88.7,491.4,88.7z M526,275.9c0,19.1-15.5,34.6-34.6,34.6c-19.1,0-34.6-15.5-34.6-34.6V156.6 c0-19.1,15.5-34.6,34.6-34.6c19.1,0,34.6,15.5,34.6,34.6V275.9z"></path> <path class="st0" d="M1235.3,234.5c0.7-5.3,1.1-12.8,1.1-18.3c0-70.4-62.2-127.5-139-127.5c-76.8,0-139,57.1-139,127.5 s62.2,127.5,139,127.5c52.8,0,98.6-26.9,122.2-66.7l-30.7-11.4c-18.5,28.4-52.6,47.3-91.5,47.3c-19.1,0-34.6-18.1-34.6-37.2v-41.3 L1235.3,234.5L1235.3,234.5z M1062.8,156.6c0-19.1,15.5-34.6,34.6-34.6c19.1,0,34.6,15.5,34.6,34.6V202h-69.1V156.6z M2163.9,234.5 c0.7-5.3,1.1-12.8,1.1-18.3c0-70.4-62.2-127.5-139-127.5s-139,57.1-139,127.5s62.2,127.5,139,127.5c52.7,0,98.6-26.9,122.2-66.7 l-30.7-11.4c-18.5,28.4-52.6,47.3-91.5,47.3c-19.1,0-34.6-18.1-34.6-37.2v-41.3L2163.9,234.5L2163.9,234.5z M1991.4,156.6 c0-19.1,15.5-34.6,34.6-34.6s34.6,15.5,34.6,34.6V202h-69.2V156.6z"></path> </g> </svg> 