<?xml version="1.0" encoding="UTF-8"?> <svg xmlns="http://www.w3.org/2000/svg" id="Layer_1" data-name="Layer 1" viewBox="0 0 809.94 243.08" width="300" height="90"><defs><style>.cls-1{fill:#ed1c24}.cls-3{fill:#2d68b2}</style></defs><path class="cls-1" d="M341.08 207.9v28.84h-4.61V207.9zm7.38 5.77h2.13l1.24 2.3a11.89 11.89 0 0 1 3.83-2.1 15.72 15.72 0 0 1 4.76-.67 9.6 9.6 0 0 1 4.89 1 3.21 3.21 0 0 1 1.66 2.93v19.61h-4.62V217H357a6 6 0 0 0-3.09.55 2.39 2.39 0 0 0-.83 2.12v17.08h-4.62zm43.61-8.17v31.24H390l-1-1.85a4.79 4.79 0 0 1-2.65 2 16.69 16.69 0 0 1-4.78.55 12.07 12.07 0 0 1-5.51-1 5.35 5.35 0 0 1-2.54-3.51 30.63 30.63 0 0 1-.72-7.75 30.08 30.08 0 0 1 .7-7.43 5.6 5.6 0 0 1 2.4-3.55 9.93 9.93 0 0 1 5-1 25.48 25.48 0 0 1 3.94.26 7.87 7.87 0 0 1 2.65.85v-8.26zm-4.62 11.5h-7.75a4 4 0 0 0-1.68.23.92.92 0 0 0-.44.92v15.5h7.75a4.06 4.06 0 0 0 1.69-.23.94.94 0 0 0 .43-.92zm14.38 19.21a5.59 5.59 0 0 1-2.93-3.53 34.08 34.08 0 0 1 0-15 5.56 5.56 0 0 1 2.93-3.53 20.09 20.09 0 0 1 12.52 0 5.58 5.58 0 0 1 2.91 3.5 34.21 34.21 0 0 1 0 15 5.59 5.59 0 0 1-2.93 3.53 20.22 20.22 0 0 1-12.5 0zm9.25-2.8a4.38 4.38 0 0 0 1.78-.23.94.94 0 0 0 .43-.92V217h-8.21a4.38 4.38 0 0 0-1.78.23.94.94 0 0 0-.43.92v15.27zm15.39 2.8a5.59 5.59 0 0 1-2.93-3.53 34.08 34.08 0 0 1 0-15 5.56 5.56 0 0 1 2.93-3.53 20.13 20.13 0 0 1 12.53 0 5.6 5.6 0 0 1 2.9 3.5 34.21 34.21 0 0 1 0 15 5.59 5.59 0 0 1-2.93 3.53 20.22 20.22 0 0 1-12.5 0zm9.25-2.8a4.38 4.38 0 0 0 1.78-.23.94.94 0 0 0 .43-.92V217h-8.21a4.38 4.38 0 0 0-1.78.23.94.94 0 0 0-.43.92v15.27zm17.72-16.1a37.33 37.33 0 0 1 3.55-2.86 12.18 12.18 0 0 1 2.77-1.48l.46 4.53a20.56 20.56 0 0 0-3.16 1.26 17 17 0 0 0-2.79 1.69v16.29h-4.62v-23.07h2.17zm37.24 12.97h-11l-1.89 6.46h-4.62l8.54-28.84h7l8.54 28.84h-4.61zm-1.07-3.65l-4.24-14.49H485l-4.24 14.49zm12.49-17.56a3.08 3.08 0 0 1-.58-2.19 2.33 2.33 0 0 1 2.86-2.86 3 3 0 0 1 2.19.6 3.32 3.32 0 0 1 .58 2.26 3.19 3.19 0 0 1-.56 2.19 3.07 3.07 0 0 1-2.21.58 3.24 3.24 0 0 1-2.28-.58zm4.54 4.23v23.44H502V214zm11.17 4.01a37.33 37.33 0 0 1 3.55-2.86 12.18 12.18 0 0 1 2.77-1.48l.46 4.53a20.56 20.56 0 0 0-3.16 1.26 17 17 0 0 0-2.79 1.69v16.29H514v-23.07h2.17zM544 233.3a39.14 39.14 0 0 0 4.73.3c1.57 0 3.3-.09 5.21-.28v-8.58l-4.38-.32a26 26 0 0 1-6.37-1.09 5.12 5.12 0 0 1-3-2.4 10.46 10.46 0 0 1-.85-4.73 13.47 13.47 0 0 1 .85-5.28 5.41 5.41 0 0 1 2.77-2.84 12.64 12.64 0 0 1 5.15-.87 50.76 50.76 0 0 1 9.32.87l-.6 3.65a46.34 46.34 0 0 0-8.45-.69 28.73 28.73 0 0 0-4 .23v8.67l5.12.32a18.31 18.31 0 0 1 5.72 1.09 5.32 5.32 0 0 1 2.89 2.63 11.52 11.52 0 0 1 .85 4.91 10.69 10.69 0 0 1-1 5.08 5.81 5.81 0 0 1-3.33 2.65 19.71 19.71 0 0 1-6.32.81 38.2 38.2 0 0 1-9.32-1.11l.69-3.78a35.28 35.28 0 0 0 4.32.76zm37.25-19.63l-6.6 21.68a24.87 24.87 0 0 1-2.35 5.65 7.63 7.63 0 0 1-2.95 2.9 9.28 9.28 0 0 1-4.29.88 14.83 14.83 0 0 1-4-.5l.19-2.45 3.18-.42a9.39 9.39 0 0 0 2.75-.67 3.6 3.6 0 0 0 1.54-1.36 10.19 10.19 0 0 0 1.11-2.67l.41-1.39h-2.58L561 213.67h4.57l5.31 17.76h.46l5.31-17.76zm4.96.96c1.4-1.1 3.61-1.66 6.62-1.66a28.28 28.28 0 0 1 7.66 1l-.64 3.37a18.13 18.13 0 0 0-2.73-.53 21.87 21.87 0 0 0-2.9-.21 32.71 32.71 0 0 0-5.22.4v5.45a56.62 56.62 0 0 1 8.14 1.59 6.68 6.68 0 0 1 3.58 2.17 6.91 6.91 0 0 1 1 4 8.11 8.11 0 0 1-.95 4.2 5.36 5.36 0 0 1-3.07 2.28 18.1 18.1 0 0 1-5.67.72 28.75 28.75 0 0 1-8.36-1.34l.74-3.69a20.72 20.72 0 0 0 7.57 1.38 17.9 17.9 0 0 0 2.45-.14 20 20 0 0 0 2.44-.5v-5.45a60.65 60.65 0 0 1-8.49-1.61 6 6 0 0 1-3.37-2.1 8 8 0 0 1-.83-4.13q-.07-3.53 2.03-5.2zm27.66 2.22v16.47c1.11.13 2.2.2 3.28.23l-.28 3.14a22.64 22.64 0 0 1-4.2.51 3.48 3.48 0 0 1-2.58-.86 3.61 3.61 0 0 1-.83-2.6v-16.89H606v-3.18h3.23v-4.94l4.61-1.16v6.1H618v3.18zm22.43 16.45c1.2-.17 2.63-.45 4.29-.85l.6 3.36a20.9 20.9 0 0 1-4.22 1 36.65 36.65 0 0 1-5.19.37 11.66 11.66 0 0 1-5.49-1 5.74 5.74 0 0 1-2.68-3.58 26.57 26.57 0 0 1-.78-7.38 22.69 22.69 0 0 1 .9-7.22 6.33 6.33 0 0 1 3-3.67 12.64 12.64 0 0 1 5.86-1.11 20.65 20.65 0 0 1 5.7.6 4.42 4.42 0 0 1 2.75 2.06 9.26 9.26 0 0 1 .78 4.27 9.09 9.09 0 0 1-1 4.84q-1 1.49-3.81 2a59.41 59.41 0 0 1-9.34.51v5.59a19.74 19.74 0 0 0 4.94.5 26.28 26.28 0 0 0 3.69-.29zm-7.82-15.76a2.41 2.41 0 0 0-.81 2.12v4.8h6.09a5.89 5.89 0 0 0 3.07-.55 2.41 2.41 0 0 0 .81-2.12V217h-6.14a5.75 5.75 0 0 0-3.02.54zm48.61-3.34a3.19 3.19 0 0 1 1.66 2.93v19.61h-4.61V217h-4.89a7.16 7.16 0 0 0-2.87.41 1.94 1.94 0 0 0-1 1.53v17.81h-4.61V217h-4.9a6.05 6.05 0 0 0-3.09.55 2.39 2.39 0 0 0-.83 2.12v17.08h-4.61v-23.08h2.12l1.25 2.3a11 11 0 0 1 3.62-2.1 14.06 14.06 0 0 1 4.5-.67q4.74 0 6.09 2.13a12.27 12.27 0 0 1 7.29-2.13 9.6 9.6 0 0 1 4.88 1zm9.34.43c1.4-1.1 3.61-1.66 6.62-1.66a28.28 28.28 0 0 1 7.66 1l-.64 3.37a18.23 18.23 0 0 0-2.72-.53 22.13 22.13 0 0 0-2.91-.21 32.71 32.71 0 0 0-5.26.41v5.45a56.62 56.62 0 0 1 8.14 1.59 6.68 6.68 0 0 1 3.58 2.17 6.91 6.91 0 0 1 1 4 8.11 8.11 0 0 1-1 4.2 5.36 5.36 0 0 1-3.07 2.28 18.1 18.1 0 0 1-5.67.72 28.75 28.75 0 0 1-8.36-1.34l.74-3.69a20.76 20.76 0 0 0 7.57 1.38 17.9 17.9 0 0 0 2.45-.14 20 20 0 0 0 2.44-.5v-5.45a60.65 60.65 0 0 1-8.49-1.61 6 6 0 0 1-3.37-2.1 8 8 0 0 1-.83-4.13q.02-3.54 2.12-5.21z" transform="translate(-1.74 -1.73)"></path><path d="M96.58 170.53H77.71l27.67-103.25h18.87L96.58 170.53zm-73.25-16.66l23.2-86.59H27.66L0 170.53h61.05l4.47-16.66H23.33zm180.53-69.93l4.46-16.66h-63.35L117.3 170.53h18.87l11.6-43.29h41.12l4.47-16.67h-41.12l7.13-26.63h44.49zm13.68 69.93l7.13-26.64h40l4.46-16.65h-40l7.14-26.64h43.33l4.46-16.66h-62.19L194.2 170.53h62.2l4.47-16.66h-43.33z" fill="#515351"></path><path class="cls-1" d="M358.12 7.65l-9.22 34.4a8 8 0 0 0 7.72 10.06h11.62a8 8 0 0 0 7.76-5.92l9.22-34.4a8 8 0 0 0-7.72-10.06h-11.66a8 8 0 0 0-7.72 5.92zM228.46 229.1l8-30a8 8 0 0 0-7.67-10.1h-30.86a8 8 0 0 0-7.72 5.92l-8 30a8 8 0 0 0 7.68 10.08h30.85a8 8 0 0 0 7.72-5.9z" transform="translate(-1.74 -1.73)"></path><path class="cls-3" d="M470.32 149.54l3.89-14.54a8.48 8.48 0 0 1 7.68-6.06h27.89a8.46 8.46 0 0 0 7.67-6.05l1.22-4.55c.9-3.34-1.09-6-4.43-6h-27.89c-3.34 0-5.33-2.71-4.43-6l3.89-14.53a8.48 8.48 0 0 1 7.68-6.06h31.22a8.48 8.48 0 0 0 7.68-6l1.22-4.56c.89-3.34-1.09-6-4.43-6h-50.1a8.47 8.47 0 0 0-7.67 6L447 166.21c-.9 3.34 1.09 6 4.43 6h50.09a8.48 8.48 0 0 0 7.68-6l1.22-4.56c.89-3.34-1.09-6.05-4.43-6.05h-31.24c-3.34 0-5.32-2.71-4.43-6.06zm301.6-74.48l-8.06 30.09a8.48 8.48 0 0 1-7.68 6h-22.32c-3.34 0-5.33-2.71-4.43-6l8.06-30.09c.9-3.34-1.09-6-4.43-6h-6.76a8.47 8.47 0 0 0-7.68 6l-24.42 91.15c-.9 3.34 1.09 6 4.43 6h6.76a8.47 8.47 0 0 0 7.68-6l8.65-32.3a8.48 8.48 0 0 1 7.68-6.06h22.32c3.34 0 5.33 2.71 4.43 6.06l-8.66 32.3c-.89 3.34 1.09 6 4.44 6h6.76a8.46 8.46 0 0 0 7.67-6l24.42-91.15c.9-3.34-1.08-6-4.43-6h-6.76a8.46 8.46 0 0 0-7.67 6zM701.38 69h-62.26a8.47 8.47 0 0 0-7.68 6l-1.22 4.55c-.89 3.34 1.09 6 4.43 6h15.65c3.34 0 5.33 2.71 4.43 6.06l-20 74.49c-.89 3.34 1.09 6 4.43 6H646a8.47 8.47 0 0 0 7.67-6l20-74.49a8.47 8.47 0 0 1 7.67-6.06h15.65a8.46 8.46 0 0 0 7.67-6l1.22-4.55c.83-3.28-1.16-6-4.5-6zM352.6 122.2c-1.35-2.14-.61-5.29 1.69-7.62a20.39 20.39 0 0 0 5-8.67l5-18.65c1.23-5.09 1.18-10.78-2.11-14.09s-4.7-4.12-18.27-4.16h-36.34a8.46 8.46 0 0 0-7.67 6l-24.42 91.15c-.9 3.34 1.08 6 4.43 6h36.32c14.55 0 16.23-.69 21.54-4.16s8.45-9.54 9.86-14.81l6-22.24c1-3.81.3-6.63-1.03-8.75zM345.22 88l-4.81 17.93c-1.59 6-7 6.39-10.8 6.39h-14.77c-3.34 0-5.33-2.71-4.43-6l3.89-14.52a8.47 8.47 0 0 1 7.68-6h16.41c2.55-.12 7.44-.12 6.83 2.2zm-24.53 67.6h-17.45c-3.34 0-5.33-2.71-4.43-6.06l4.18-15.6a8.47 8.47 0 0 1 7.67-6h21.39c3.79 0 2.95 2.09 2.67 3.16l-6 22.24c-.58 2.25-5.47 2.26-8.03 2.26zm106.7-18.1c-.73-2.79 1.14-6.23 4.25-7.93 9.55-5.2 11.5-10.51 12.08-12.67l2.95-11 4.94-18.44c1.28-5.15 1.28-11-2.05-14.31s-4.71-4.12-18.27-4.16h-39.82a8.46 8.46 0 0 0-7.67 6l-24.43 91.16c-.89 3.34 1.09 6.05 4.43 6.05h6.77a8.46 8.46 0 0 0 7.67-6.05l7.48-27.9a8.47 8.47 0 0 1 7.67-6h9.53a4.36 4.36 0 0 1 4.55 3.47l6.74 33.06a4.36 4.36 0 0 0 4.55 3.47h7.13c4.49 0 8.69-4.71 7.76-8.74-1.79-7.74-4.41-18.92-6.26-26.01zm-34-27.93l4.78-17.84a8.48 8.48 0 0 1 7.68-6h19.89c2.55 0 7.45 0 6.83 2.31l-3.77 14.08-1 3.85-1.07 4c-1.26 4.73-4.93 5.59-8.17 5.72h-20.7c-3.35-.06-5.33-2.77-4.44-6.12zM613.48 69h-3.37a9 9 0 0 0-1.26.12 9 9 0 0 0-1.19-.12h-36.25c-12.32 0-25 10-28.33 22.34l-7.39 27.59-12.21 45.57c-1.15 4.28 1.39 7.75 5.67 7.75h3.37a10.85 10.85 0 0 0 9.83-7.75l7.74-28.91a10.85 10.85 0 0 1 9.83-7.75h18.93c4.28 0 6.82 3.47 5.67 7.75l-7.75 28.91c-1.14 4.28 1.39 7.75 5.67 7.75h3.38a10.84 10.84 0 0 0 9.82-7.75l23.51-87.75c1.15-4.27-1.39-7.75-5.67-7.75zm-20.35 34.44a10.83 10.83 0 0 1-9.82 7.75h-26.95l5.32-19.85a5.25 5.25 0 0 1 4.75-3.75h31zM297.15 25l-4.58 17.1a8 8 0 0 0 7.72 10.06h24.31a8 8 0 0 0 7.72-5.92l4.58-17.1A8 8 0 0 0 329.18 19h-24.31a8 8 0 0 0-7.72 6zm-35.31 190.68l5.52-20.68a4.79 4.79 0 0 0-4.63-6H257a4.82 4.82 0 0 0-4.64 3.55l-5.52 20.63a4.8 4.8 0 0 0 4.63 6h5.71a4.82 4.82 0 0 0 4.66-3.5zm544.97-140.3c0-1.6-1.12-2.53-3.1-2.53h-2.92v8.07h1.41v-2.78l1.67-.09 1.75 2.87h1.62l-2-3.19a2.36 2.36 0 0 0 1.57-2.35zm-3.26 1.55h-1.37V74.1h1.37c1.23 0 1.85.41 1.85 1.37s-.53 1.44-1.85 1.46z" transform="translate(-1.74 -1.73)"></path><path class="cls-3" d="M803.74 84.9a7.95 7.95 0 1 1 7.94-8 8 8 0 0 1-7.94 8zm0-14.82a6.88 6.88 0 1 0 6.87 6.92 6.88 6.88 0 0 0-6.87-6.92z" transform="translate(-1.74 -1.73)"></path></svg> 