<?xml version="1.0" encoding="UTF-8"?> <!-- Generator: Adobe Illustrator 24.2.1, SVG Export Plug-In . SVG Version: 6.00 Build 0) --> <svg xmlns="http://www.w3.org/2000/svg" xmlns:xlink="http://www.w3.org/1999/xlink" version="1.1" id="layer" x="0px" y="0px" viewBox="0 0 600.1 66" style="enable-background:new 0 0 600.1 66;" xml:space="preserve"> <style type="text/css"> .st0{fill:#112369;} .st1{fill:#F68B1F;} .st2{fill:#FFFFFF;} </style> <rect x="356.9" y="1.9" class="st0" width="30.9" height="63.1"></rect> <path class="st0" d="M316,48.3c0,0-19.4-45.8-19.4-46.4h-34.9L289.6,65h33.7l26.1-63.1h-15.2L316,48.3z"></path> <polygon class="st0" points="135,41.3 108,1.9 77.4,1.9 77.4,64.9 108,64.9 108,24.9 135.3,64.6 165.6,64.6 165.6,1.9 135,1.9 "></polygon> <polygon class="st0" points="550.9,41.3 524,1.9 493.3,1.9 493.3,64.6 524,64.6 524,24.9 551.2,64.9 581.6,64.6 581.6,1.9 550.9,1.9 "></polygon> <path class="st0" d="M459.7,39.8c13.6,0,24.3-3.9,24.3-14.9v-6.7C484,5.2,470.1,0,442.2,0c-30.3,0-43.1,6.1-43.1,24v18.5 c0,20.3,20,23.3,44.6,23.3c25.8,0,37.6-4.5,37.6-4.5V48c-9.4,3-22.1,5.5-34.9,5.5c-6.7,0-15.5-0.9-17.9-2.4 c-1.5-0.9-2.4-2.7-2.4-4.9v-6.4H459.7z M439.1,12.8h8.8c6.1,0,12.1,2.1,12.1,7.3s-3.9,8.2-9.7,8.2H427V21 C426.9,14.9,433.6,12.8,439.1,12.8z"></path> <path class="st0" d="M262.3,64.9c-3-2.7-3.3-8.5-3.3-13.3v-8.2V25.5v-0.9l0,0c0-1.2,0-2.1-0.3-3.3c-0.6-6.7-2.1-10-6.1-13.6 c-3.9-3.6-12.7-7.3-34.6-7.3h-3c-17.3,0-34.3,4.5-34.3,4.5v13.9c12.7-3.3,19.7-5.2,34.3-5.2c6.1,0,11.8,0.6,14.6,2.1 c2.1,1.2,3.3,3.3,3.3,5.5v4.2h-24.6c-16.4-0.3-32.4,4.2-32.4,19.4v1.8c0,13.9,15.5,19.4,31.2,19.4c11.5,0,20-1.8,26.4-4.5 c0,1.5,0.6,3.3,0.9,3h27.9V64.9z M213.8,54c-6.1,0-10.3-3.6-10.6-8.8c0-5.2,6.4-8.2,11.8-8.2h17.6v6.7C232.9,50.1,222.6,54,213.8,54 z"></path> <path class="st0" d="M600.1,7c0,3.9-3.3,7-7.3,7c-3.9,0-7.3-3-7.3-7s3.3-7,7.3-7C596.7,0.1,600.1,3.1,600.1,7 M587.3,7 c0,3,2.4,5.8,5.5,5.8c3,0,5.5-2.4,5.5-5.8c0-3-2.4-5.8-5.5-5.8C589.7,1.6,587.3,4,587.3,7 M591.6,10.7h-1.5v-7 c0.6,0,1.5-0.3,2.7-0.3s1.8,0.3,2.4,0.6c0.3,0.3,0.6,0.9,0.6,1.5c0,0.9-0.6,1.5-1.5,1.8l0,0c0.6,0.3,0.9,0.9,1.2,1.8 c0.3,1.2,0.3,1.5,0.6,1.8h-1.8c-0.3-0.3-0.3-0.9-0.6-1.8c0-0.6-0.6-1.2-1.5-1.2h-0.9v2.7h0.3V10.7z M591.6,6.7h0.9 c0.9,0,1.5-0.3,1.5-0.9s-0.6-1.2-1.5-1.2c-0.3,0-0.6,0-0.9,0V6.7z"></path> <rect y="1.6" class="st1" width="63.4" height="63.4"></rect> <path class="st2" d="M28.9,59.2L16.5,41.9c-1.2,1.2-2.4,2.4-3.3,3.6c-0.9,0.9-1.8,1.8-2.1,2.4v11.3h-3V24.9h3v18.5 c2.4-2.7,5.2-5.5,7.9-8.8c2.4-3.3,5.2-6.4,7.3-9.7h3.6c-1.8,2.7-3.9,5.5-5.8,7.9c-2.1,2.4-3.9,4.9-5.8,6.7l13.9,19.7H28.9z"></path> <path class="st2" d="M54.3,29.8c2.4,3.3,3.6,7.3,3.6,12.1c0,4.9-1.2,9.1-3.6,12.1c-2.4,3.3-5.8,4.9-10,4.9h-9.7v-34h9.7 C48.6,24.9,51.9,26.7,54.3,29.8z M52.2,51.9c1.8-2.7,2.7-6.1,2.7-10s-0.9-7.3-2.7-10C50.4,29.2,47.7,28,44,28h-6.4v28.2H44 C47.6,56.1,50.4,54.9,52.2,51.9z"></path> </svg> 