<?xml version="1.0" encoding="UTF-8"?> <!-- Generator: Adobe Illustrator 19.2.1, SVG Export Plug-In . SVG Version: 6.00 Build 0) --> <svg xmlns="http://www.w3.org/2000/svg" xmlns:xlink="http://www.w3.org/1999/xlink" version="1.1" id="layer" x="0px" y="0px" viewBox="0 0 652 652" style="enable-background:new 0 0 652 652;" xml:space="preserve"> <style type="text/css"> .st0{fill:#112369;} .st1{fill:#F68B1F;} .st2{fill:#FFFFFF;} </style> <rect x="377.8" y="290.7" class="st0" width="30.9" height="63.1"></rect> <path class="st0" d="M336.9,337.1c0,0-19.4-45.8-19.4-46.4h-34.9l27.9,63.1h33.7l26.1-63.1h-15.2L336.9,337.1z"></path> <polygon class="st0" points="155.9,330.1 128.9,290.7 98.3,290.7 98.3,353.7 128.9,353.7 128.9,313.7 156.2,353.4 186.5,353.4 186.5,290.7 155.9,290.7 "></polygon> <polygon class="st0" points="571.8,330.1 544.9,290.7 514.2,290.7 514.2,353.4 544.9,353.4 544.9,313.7 572.1,353.7 602.5,353.4 602.5,290.7 571.8,290.7 "></polygon> <path class="st0" d="M480.6,328.6c13.6,0,24.3-3.9,24.3-14.9V307c0-13-13.9-18.2-41.8-18.2c-30.3,0-43.1,6.1-43.1,24v18.5 c0,20.3,20,23.3,44.6,23.3c25.8,0,37.6-4.5,37.6-4.5v-13.3c-9.4,3-22.1,5.5-34.9,5.5c-6.7,0-15.5-0.9-17.9-2.4 c-1.5-0.9-2.4-2.7-2.4-4.9v-6.4H480.6z M460,301.6h8.8c6.1,0,12.1,2.1,12.1,7.3s-3.9,8.2-9.7,8.2h-23.3v-7.3 C447.8,303.7,454.5,301.6,460,301.6z"></path> <path class="st0" d="M283.2,353.7c-3-2.7-3.3-8.5-3.3-13.3v-8.2v-17.9v-0.9l0,0c0-1.2,0-2.1-0.3-3.3c-0.6-6.7-2.1-10-6.1-13.6 c-3.9-3.6-12.7-7.3-34.6-7.3h-3c-17.3,0-34.3,4.5-34.3,4.5v13.9c12.7-3.3,19.7-5.2,34.3-5.2c6.1,0,11.8,0.6,14.6,2.1 c2.1,1.2,3.3,3.3,3.3,5.5v4.2h-24.6c-16.4-0.3-32.4,4.2-32.4,19.4v1.8c0,13.9,15.5,19.4,31.2,19.4c11.5,0,20-1.8,26.4-4.5 c0,1.5,0.6,3.3,0.9,3h27.9V353.7z M234.7,342.8c-6.1,0-10.3-3.6-10.6-8.8c0-5.2,6.4-8.2,11.8-8.2h17.6v6.7 C253.8,338.9,243.5,342.8,234.7,342.8z"></path> <path class="st0" d="M621,295.8c0,3.9-3.3,7-7.3,7c-3.9,0-7.3-3-7.3-7s3.3-7,7.3-7C617.6,288.9,621,291.9,621,295.8 M608.2,295.8 c0,3,2.4,5.8,5.5,5.8c3,0,5.5-2.4,5.5-5.8c0-3-2.4-5.8-5.5-5.8C610.6,290.4,608.2,292.8,608.2,295.8 M612.5,299.5h-1.5v-7 c0.6,0,1.5-0.3,2.7-0.3c1.2,0,1.8,0.3,2.4,0.6c0.3,0.3,0.6,0.9,0.6,1.5c0,0.9-0.6,1.5-1.5,1.8l0,0c0.6,0.3,0.9,0.9,1.2,1.8 c0.3,1.2,0.3,1.5,0.6,1.8h-1.8c-0.3-0.3-0.3-0.9-0.6-1.8c0-0.6-0.6-1.2-1.5-1.2h-0.9v2.7H612.5z M612.5,295.5h0.9 c0.9,0,1.5-0.3,1.5-0.9c0-0.6-0.6-1.2-1.5-1.2c-0.3,0-0.6,0-0.9,0V295.5z"></path> <rect x="20.9" y="290.4" class="st1" width="63.4" height="63.4"></rect> <path class="st2" d="M49.8,348l-12.4-17.3c-1.2,1.2-2.4,2.4-3.3,3.6c-0.9,0.9-1.8,1.8-2.1,2.4V348h-3v-34.3h3v18.5 c2.4-2.7,5.2-5.5,7.9-8.8c2.4-3.3,5.2-6.4,7.3-9.7h3.6c-1.8,2.7-3.9,5.5-5.8,7.9c-2.1,2.4-3.9,4.9-5.8,6.7L53.1,348H49.8z"></path> <path class="st2" d="M75.2,318.6c2.4,3.3,3.6,7.3,3.6,12.1c0,4.9-1.2,9.1-3.6,12.1c-2.4,3.3-5.8,4.9-10,4.9h-9.7v-34h9.7 C69.5,313.7,72.8,315.5,75.2,318.6z M73.1,340.7c1.8-2.7,2.7-6.1,2.7-10c0-3.9-0.9-7.3-2.7-10c-1.8-2.7-4.5-3.9-8.2-3.9h-6.4v28.2 h6.4C68.5,344.9,71.3,343.7,73.1,340.7z"></path> </svg> 