<?xml version="1.0" encoding="utf-8"?>
<!-- Generator: Adobe Illustrator 24.2.1, SVG Export Plug-In . SVG Version: 6.00 Build 0)  -->
<svg version="1.1" id="Layer_1" xmlns="http://www.w3.org/2000/svg" xmlns:xlink="http://www.w3.org/1999/xlink" x="0px" y="0px"
	 viewBox="0 0 457.6 180" style="enable-background:new 0 0 457.6 180;" xml:space="preserve">
<style type="text/css">
	.st0{opacity:0.25;fill:#346CA0;enable-background:new    ;}
	.st1{fill:#346CA0;}
	.st2{fill:url(#SVGID_1_);}
</style>
<g>
	<g>
		<path class="st0" d="M266.3,102.1c-1.1,4-0.9,7.3,0.3,9.8c1.2,2.5,3.4,4.2,6.2,5c2.7,0.7,5.6,0.2,8-1.5s4.3-4.4,5.3-8
			c2.3-8.8-4.4-22-2.2-29.7l0,0v-0.1c0-0.3-0.2-0.5-0.5-0.5c-0.2,0-0.4,0.2-0.5,0.4l0,0C281.1,84.5,268.8,93.3,266.3,102.1z"/>
		<g>
			<g>
				<path class="st1" d="M195,53.5c2.3,1.3,6.1-0.1,8.5-4c2.4-3.8,1.8-8.2-0.5-9.6c-2.4-1.4-6.2,0-8.7,3.8
					C191.9,47.6,192.6,52.2,195,53.5z"/>
				<path class="st1" d="M123.8,94.4c-2.7,6.9-3.3,15.8-0.9,19.1c2.4,3.4,10.8,3.7,19.4-10.9c0.5-0.8-0.5-1.6-1.3-0.5
					c-1.2,1.6-1.6,2.3-3.2,4.5c-2.4,3.3-4.2,4-5.2,3.1s-1-3.3-0.1-6.6c6.2-22.1,17.8-31.3,23.8-36.1c5.3-4.2,7.5-2.9,6.6-1.3
					c-0.3,0.6-0.6,1.2-1,2c-7.8,14.1-11.3,20.8-16.6,31.7c-2,4.2-3,7.1-3,9.6l0,0v0.2c0,0.4,0.1,0.9,0.2,1.3
					c0.2,1.4,0.7,2.5,1.4,3.3c0.3,0.4,0.6,0.7,1.1,0.9c1.2,0.7,2.6,0.9,4.2,0.7l0,0c4.2-0.5,10.1-3.8,15.6-12.8
					c0.5-0.8-0.3-1.7-1.1-0.6c-1,1.3-3.8,4.9-6,6.6c-3.9,3-7.9,1.9-5.1-3.7c4.9-9.8,10-20,15.3-30c1.8-3.4,4.7-8.8,2.3-12.5
					c-0.8-1.2-2.7-2.3-5.7-2.3c-2.8,0-5.9,0.9-9.3,2.5C138.7,70.3,128.2,83.1,123.8,94.4z"/>
				<path class="st1" d="M161.7,140.7c-25.2,7.8-45.3,6.8-47.9-23.1c-3-35.2-9-37.3-13.9-41.6c25.3,0.5,47.2-15.2,47.3-36.1
					c0-9.3-4.3-18.4-17.8-24.6c5.8-2.3,11-2.7,12.9-3c0.8-0.1,1.5-0.5,1.5-1c0-0.6-0.3-1-1.4-1.1c-6.8,0.2-12.8,1.4-17.9,3.3
					c-28.7-8.4-64.7,2.3-78.5,17c-1.4,1.5-1.2,2.5-0.5,3.1c0.6,0.5,1.8,0.2,2.4-0.4c8.4-9,36.4-24.6,68.3-15.8h0.1
					C103.2,25.1,96.8,36.8,94.5,41c-5.4,9.9-21.4,39.9-34.5,64.9c-13.8,26.2-36.1,32.2-47.4,24.3C1.1,122.1,2.5,112.5,2.7,109
					c0.1-1.8-2.6-3.2-2.7,1.4c0,0.8,0,1.6,0,2.4l0,0l0,0l0,0c0.1,18.2,15.3,27.9,30.7,26.6l0,0c0.3,0,0.7-0.1,1-0.1
					c10.6-1,21.8-8.6,27.8-15.1c3.7-3.9,7.3-8.7,10.5-14.5c3.6-6.3,10.9-19.8,19-34.7c8.3,1.6,9.9,8.6,10.8,13.1
					c1,4.7,3.2,20.5,4.9,29.7c1.7,9.2,6.2,25.6,22.5,29.7c16.7,4.2,34.4-4.2,35.5-4.8c0.8-0.5,1.4-1,1.1-1.7
					C163.5,140.6,162.9,140.3,161.7,140.7z M90.4,72.3c7.5-13.9,15.4-28.5,21.1-39.3c3.2-6,5.9-10.2,10.4-13.5
					c0.1,0,0.2,0.1,0.3,0.1C161.5,38.8,116.1,78.8,90.4,72.3z"/>
				<path class="st1" d="M320.6,20.6c8-0.7,13.4,5.2,13.9,12.1c0.1,1.2,0.9,1.7,1.7,1.5c0.6-0.1,1.2-0.8,1.1-2
					c-0.5-5.7-3.7-15.5-17.8-15.3C306.9,17,288.1,32.5,299,55.2c4.5,9.5,9.4,15.9,12,33.1s-2,32.5-12.6,42.6
					c-18.2,17.3-57.9,11.9-55.2-26.1c1.7-22.9,23.8-31.2,31.6-32.6c1.4-0.3,1.6-1.2,1.4-1.8c-0.2-0.5-0.7-1.2-1.8-1
					c-24.7,4.7-38.5,24.5-34.8,49.4c4.3,28.4,39.1,36.5,61.9,18.7c5.1-3.5,9.5-8.4,13.3-14.9c5-8.5,8.2-19.7,6.7-34.3
					c-2.2-20.5-12.5-35.4-15.1-41C300.8,35.7,306.8,21.9,320.6,20.6z"/>
				<path class="st1" d="M236.4,77c1.7-3.4,4.7-10,1.8-14.4c-0.8-1.2-3.1-3.6-8.6-1.6c-2.2,0.8-7,3.7-11.8,8.5l4-8.3h-10.5
					l-26.9,53.7h10.4l21-41.4c3-3.3,5.2-5.4,7.5-6.8c6.6-4.1,8.8-2.3,3,8.9c-8,15.5-6.4,12.3-11.9,23.4c-2.1,4.1-2.7,7.7-2.6,10.2
					l0,0v0.2c0,0.4,0.1,0.9,0.2,1.3c0.2,1.4,0.7,2.5,1.4,3.3c0.3,0.4,0.6,0.7,1.1,0.9c1.2,0.7,2.6,0.9,4.2,0.7l0,0
					c4.2-0.5,10.1-3.8,15.6-12.8c0.5-0.8-0.3-1.7-1.1-0.6c-1,1.3-3.8,4.9-6,6.6c-3.9,3-7.9,1.9-5.1-3.7
					C226.9,95.3,231.4,87,236.4,77z"/>
				<path class="st1" d="M189.3,102.8c0.5-0.6-0.2-1.8-1.1-0.8c-1.2,1.4-3.9,4.8-6.6,6.4c-6,3.7-9.3,2.1-5.7-5.2
					C180,94.9,197.2,61,197.2,61h-10.7c0,0-10.2,19.9-19.3,38.4c-2,4-3,7.1-3,9.6l0,0l0,0v0.1l0,0c0.3,7.1,5.5,7.4,10.8,5.3l0,0
					C179.2,112.8,184.3,109.3,189.3,102.8z"/>
				<path class="st1" d="M426.6,60.2c5.3-10.7,9.4-19,9.4-19h-10.4c0,0-4.2,8.4-9.5,19h-16.9L428.4,0H419c0,0-14.4,27.6-30.7,60.2
					H384v8.3c-1.1,2.1-2.2,4.3-3.3,6.4c-3.1,2.9-9,5.4-13,4.3c3.2-11,3.5-22.3-1.4-25.5c-6.3-4-26,5.2-35.4,29.1
					c-6.7,17-5.7,28.6,0.5,31.8c9.6,5,24-8.7,32.1-24.7c0.7-1.5,1.4-3,2.1-4.6c2.5,0.6,7.6-0.8,11.7-3.8c-18,35.3-36,70.7-40.5,80.1
					c-2.3,4.8-3.2,8.6-2.9,11.6l0,0v0.1l0,0c0.6,5.8,4.5,8.6,10.7,5.4l0,0l0,0l0,0c3.9-2,8.7-6.3,14-13.2c14.6-18.3,30-51.1,30.7-86
					l7.9-15.7h16.9c-6.8,13.6-14.7,29.4-17.6,35.2c-2.1,4.2-3.6,7.7-3.6,10.2v0.2c0,0.4,0.1,0.9,0.1,1.3c0.3,1.4,0.7,2.5,1.4,3.3
					c0.3,0.4,0.6,0.7,1.1,0.9c1.2,0.7,2.6,0.9,4.2,0.7l0,0c4.2-0.5,10-3.8,15.4-12.8c0.5-0.8-0.3-1.7-1.1-0.6c-1,1.3-3.8,4.9-6,6.6
					c-3.9,3-6.5,1.6-4-3.7c2.7-5.6,12.6-25.3,20.6-41.5h17.6l2.1-3.5L426.6,60.2L426.6,60.2z M360.9,63.8c-0.3,1.1-0.6,2.3-0.9,3.5
					c-4.2,3-4.8,8.1-3.8,11.6c-4.6,12.3-9.9,23.1-14.3,28.6c-1.7,2.2-4,3.7-5.2,2.6c-0.8-0.8-1.2-3.9-0.4-7.6
					c2.5-12.7,11.4-34.3,20.9-43.2C360.7,56,362.3,58.1,360.9,63.8z M350.3,171.1c-1.7,1.5-2.6,2.4-3.9,2.2
					c-2.2-0.2-2.3-4.3,0.1-8.9c8.8-16.4,35.1-69.4,38.5-76C378.5,136.5,356.2,165.9,350.3,171.1z"/>
				<path class="st1" d="M428.8,100.7c-4.1,0-7.6,3.2-7.6,7.5c0,4.4,3.5,7.5,7.6,7.5s7.6-3.2,7.6-7.5
					C436.4,103.9,432.9,100.7,428.8,100.7z M428.8,114.5c-3.4,0-6.1-2.7-6.1-6.3c0-3.6,2.7-6.2,6.1-6.2s6.1,2.7,6.1,6.2
					C434.9,111.8,432.2,114.5,428.8,114.5z"/>
				<path class="st1" d="M432.3,106.4c0-1.7-1-2.5-3.1-2.5h-3.3v8.7h1.3v-3.8h1.5l2.3,3.8h1.5l-2.5-3.8
					C431.3,108.6,432.3,107.9,432.3,106.4z M427.3,107.7V105h1.8c0.9,0,1.9,0.2,1.9,1.3c0,1.3-1,1.4-2.1,1.4
					C428.9,107.7,427.3,107.7,427.3,107.7z"/>
			</g>
		</g>
		
			<radialGradient id="SVGID_1_" cx="332.2202" cy="-131.7361" r="9.7296" gradientTransform="matrix(0.9674 0.2533 -0.7099 2.7114 -135.1112 362.4625)" gradientUnits="userSpaceOnUse">
			<stop  offset="0" style="stop-color:#346CA0;stop-opacity:0"/>
			<stop  offset="1" style="stop-color:#346CA0"/>
		</radialGradient>
		<path class="st2" d="M266.3,102.1c-1.1,4-0.9,7.3,0.3,9.8c1.2,2.5,3.4,4.2,6.2,5c2.7,0.7,5.6,0.2,8-1.5s4.3-4.4,5.3-8
			c2.3-8.8-4.4-22-2.2-29.7l0,0v-0.1c0-0.3-0.2-0.5-0.5-0.5c-0.2,0-0.4,0.2-0.5,0.4l0,0C281.1,84.5,268.8,93.3,266.3,102.1z"/>
	</g>
	<g>
		<path class="st1" d="M68.3,174.9h-2.1l2.3-11h-3.3l0.4-1.8h8.8l-0.4,1.8h-3.3L68.3,174.9z"/>
		<path class="st1" d="M75.5,175.1c-0.8,0-1.5-0.3-2-0.9s-0.7-1.4-0.7-2.5c0-1.2,0.2-2.3,0.6-3.3s1-1.8,1.7-2.4s1.5-0.9,2.4-0.9
			c0.6,0,1.1,0.1,1.5,0.4s0.7,0.7,1,1.2l0,0l0.5-1.4h1.6L80,175h-1.6l0.2-1.5h-0.1C77.7,174.5,76.6,175.1,75.5,175.1z M76.3,173.4
			c0.5,0,1-0.2,1.4-0.7s0.8-1.1,1.1-1.8s0.4-1.6,0.4-2.5c0-0.5-0.1-0.9-0.4-1.2s-0.6-0.5-1.1-0.5s-1,0.2-1.4,0.7s-0.8,1.1-1.1,1.8
			s-0.4,1.6-0.4,2.4c0,0.6,0.1,1,0.4,1.3C75.5,173.3,75.9,173.4,76.3,173.4z"/>
		<path class="st1" d="M90.4,165.2h2.4l-4.2,4.3l2.6,5.5h-2.3l-1.8-4.1l-1.2,0.8l-0.7,3.3h-2.1l2.9-13.7h2c-0.8,3.7-1.3,5.8-1.4,6.4
			s-0.3,1.3-0.5,2l0,0L90.4,165.2z"/>
		<path class="st1" d="M94.9,174.9h-2.1l2.1-9.7H97L94.9,174.9z M95.3,162.8c0-0.4,0.1-0.7,0.3-1s0.6-0.4,1-0.4
			c0.3,0,0.6,0.1,0.8,0.2s0.3,0.4,0.3,0.7c0,0.4-0.1,0.7-0.4,1s-0.5,0.4-0.9,0.4c-0.3,0-0.6-0.1-0.8-0.2S95.3,163.1,95.3,162.8z"/>
		<path class="st1" d="M103.6,174.9l1.2-5.9c0.1-0.5,0.2-0.9,0.2-1.2c0-0.8-0.4-1.2-1.1-1.2c-0.4,0-0.8,0.2-1.2,0.5
			s-0.8,0.8-1.1,1.4s-0.6,1.3-0.7,2.1l-0.9,4.1h-2.1l2.1-9.7h1.6l-0.2,1.8h0.1c0.5-0.7,1-1.2,1.5-1.5s1.1-0.5,1.7-0.5
			c0.8,0,1.4,0.2,1.8,0.7c0.4,0.4,0.6,1.1,0.6,1.9c0,0.4-0.1,0.9-0.2,1.6l-1.2,5.7h-2.1V174.9z"/>
		<path class="st1" d="M118.2,165.2l-0.3,1.2l-1.7,0.3c0.2,0.3,0.2,0.7,0.2,1.2c0,1.1-0.3,2-1,2.7s-1.6,1-2.8,1
			c-0.3,0-0.6,0-0.8-0.1c-0.7,0.2-1,0.5-1,0.9c0,0.2,0.1,0.4,0.3,0.5c0.2,0.1,0.5,0.1,0.8,0.2l1.1,0.1c1,0.1,1.8,0.4,2.2,0.8
			s0.7,0.9,0.7,1.6c0,1.1-0.4,2-1.3,2.7s-2.1,0.9-3.8,0.9c-1.2,0-2.1-0.2-2.8-0.7c-0.7-0.4-1-1-1-1.8c0-0.6,0.2-1.1,0.6-1.6
			c0.4-0.4,1.1-0.8,2-1.1c-0.4-0.3-0.7-0.6-0.7-1.1c0-0.4,0.1-0.8,0.4-1.1s0.7-0.6,1.3-0.9c-0.8-0.5-1.2-1.2-1.2-2.2
			c0-1.1,0.4-2.1,1.1-2.8s1.7-1.1,2.8-1.1c0.5,0,0.9,0.1,1.4,0.2h3.5V165.2z M111,174.8c-0.7,0.1-1.2,0.3-1.5,0.6s-0.5,0.7-0.5,1.2
			c0,0.4,0.2,0.7,0.5,0.9s0.8,0.3,1.5,0.3c1,0,1.7-0.2,2.2-0.5s0.8-0.8,0.8-1.4c0-0.3-0.1-0.5-0.4-0.7s-0.7-0.3-1.4-0.4L111,174.8z
			 M113.4,166.4c-0.4,0-0.7,0.1-1,0.3s-0.5,0.5-0.7,0.9s-0.2,0.8-0.2,1.3c0,0.4,0.1,0.7,0.3,1s0.5,0.3,0.9,0.3s0.7-0.1,1-0.3
			s0.5-0.5,0.7-0.9s0.2-0.8,0.2-1.3C114.6,166.8,114.2,166.4,113.4,166.4z"/>
		<path class="st1" d="M127.3,173.4c0.4,0,0.8-0.1,1.3-0.3v1.6c-0.2,0.1-0.5,0.2-0.8,0.3s-0.7,0.1-1.1,0.1c-1.6,0-2.4-0.7-2.4-2.2
			c0-0.3,0-0.7,0.1-1.2l1.1-5h-1.4l0.2-1l1.7-0.7l1.1-2h1.3l-0.5,2.2h2.5l-0.3,1.6h-2.4l-1.1,5c-0.1,0.3-0.1,0.6-0.1,0.8
			c0,0.3,0.1,0.5,0.2,0.6S127,173.4,127.3,173.4z"/>
		<path class="st1" d="M136.2,174.9l1.2-5.9c0.1-0.5,0.2-0.9,0.2-1.1c0-0.8-0.4-1.2-1.1-1.2c-0.7,0-1.3,0.4-1.8,1.1
			c-0.6,0.7-1,1.7-1.3,3l-0.9,4.1h-2.1l2.9-13.7h2.1l-0.5,2.3c-0.2,0.7-0.4,1.6-0.6,2.6l-0.2,0.7h0.1c0.5-0.6,1-1.1,1.5-1.3
			c0.5-0.3,1-0.4,1.6-0.4c0.8,0,1.4,0.2,1.8,0.7c0.4,0.5,0.6,1.1,0.6,1.9c0,0.4-0.1,1-0.2,1.5l-1.2,5.7L136.2,174.9L136.2,174.9z"/>
		<path class="st1" d="M145.2,175.1c-1.2,0-2.1-0.3-2.7-1s-1-1.6-1-2.7c0-1.2,0.2-2.2,0.7-3.2s1.1-1.8,1.8-2.3
			c0.8-0.5,1.6-0.8,2.6-0.8c0.9,0,1.7,0.2,2.2,0.6s0.8,1,0.8,1.8c0,1.1-0.5,1.9-1.5,2.5s-2.4,0.9-4.2,0.9h-0.4v0.3v0.3
			c0,0.7,0.2,1.2,0.5,1.5s0.8,0.6,1.5,0.6c0.4,0,0.8-0.1,1.3-0.2s0.9-0.3,1.5-0.6v1.6c-0.6,0.3-1.1,0.4-1.6,0.5
			C146.4,175,145.8,175.1,145.2,175.1z M146.6,166.6c-0.6,0-1.1,0.3-1.6,0.8s-0.9,1.2-1.1,2h0.3c1.1,0,2-0.2,2.6-0.5
			s0.9-0.8,0.9-1.3c0-0.3-0.1-0.5-0.3-0.7S147,166.6,146.6,166.6z"/>
		<path class="st1" d="M166.1,174.9h-2.3l-0.3-7.4l-0.1-1.6V165h-0.1c-0.3,0.8-0.6,1.7-1,2.6l-3.4,7.4h-2.3l-0.5-12.8h2l0.2,7.5
			c0,0.8,0,1.8-0.1,3h0.1c0.5-1.3,0.9-2.3,1.2-3.1l3.4-7.4h2l0.3,7.4v1.5v1.7h0.1c0.2-0.5,0.4-1.1,0.6-1.7s0.4-1.1,0.5-1.3l3.1-7.4
			h2.2L166.1,174.9z"/>
		<path class="st1" d="M179.7,168.8c0,1.2-0.2,2.3-0.6,3.2s-1,1.7-1.8,2.2c-0.7,0.5-1.6,0.8-2.6,0.8c-1.1,0-2-0.3-2.7-1
			s-1-1.6-1-2.7c0-1.2,0.2-2.2,0.6-3.2c0.4-1,1-1.7,1.8-2.3s1.6-0.8,2.6-0.8c1.1,0,2,0.3,2.7,1S179.7,167.7,179.7,168.8z
			 M177.6,168.7c0-0.6-0.1-1.1-0.4-1.5s-0.7-0.5-1.2-0.5s-1,0.2-1.5,0.6c-0.4,0.4-0.8,1-1,1.7s-0.4,1.5-0.4,2.3
			c0,0.7,0.1,1.1,0.4,1.5c0.3,0.3,0.7,0.5,1.3,0.5c0.5,0,1-0.2,1.4-0.6s0.8-1,1-1.7S177.6,169.6,177.6,168.7z"/>
		<path class="st1" d="M187.6,165c0.4,0,0.7,0,0.9,0.1l-0.4,1.9c-0.3-0.1-0.6-0.1-0.9-0.1c-0.7,0-1.4,0.3-2,1s-1,1.5-1.2,2.6
			l-0.9,4.4H181l2.1-9.7h1.6l-0.2,1.8h0.1c0.5-0.7,1-1.2,1.5-1.5S187.1,165,187.6,165z"/>
		<path class="st1" d="M195,165c0.4,0,0.7,0,0.9,0.1l-0.4,1.9c-0.3-0.1-0.6-0.1-0.9-0.1c-0.7,0-1.4,0.3-2,1s-1,1.5-1.2,2.6l-0.9,4.4
			h-2.1l2.1-9.7h1.6l-0.2,1.8h0.1c0.5-0.7,1-1.2,1.5-1.5S194.5,165,195,165z"/>
		<path class="st1" d="M197.1,165.2h2l0.6,4.7c0.1,0.4,0.1,0.9,0.1,1.5s0.1,1.2,0.1,1.6h0.1c0.5-1.3,0.9-2.2,1.2-2.8l2.6-5h2.2
			l-6,11.3c-0.5,1-1.1,1.7-1.7,2.1s-1.4,0.7-2.2,0.7c-0.4,0-0.9-0.1-1.3-0.2v-1.7c0.4,0.1,0.8,0.1,1.1,0.1c0.4,0,0.8-0.1,1.2-0.4
			s0.7-0.7,1.1-1.4l0.4-0.8L197.1,165.2z"/>
		<path class="st1" d="M222.5,166.8c0,1.6-0.3,3.1-0.8,4.4s-1.3,2.2-2.3,2.9s-2.1,1-3.4,1c-1.5,0-2.7-0.4-3.5-1.3s-1.2-2.1-1.2-3.6
			c0-1.6,0.3-3,0.9-4.3c0.6-1.3,1.4-2.3,2.4-3s2.1-1,3.4-1c1.5,0,2.6,0.4,3.4,1.3C222.1,164,222.5,165.3,222.5,166.8z M217.7,163.7
			c-0.8,0-1.5,0.3-2.2,0.8s-1.2,1.3-1.5,2.3s-0.6,2.1-0.6,3.3c0,1,0.2,1.8,0.7,2.3s1.1,0.8,2,0.8c0.8,0,1.5-0.3,2.2-0.8
			s1.2-1.3,1.5-2.3c0.4-1,0.5-2.1,0.5-3.3c0-1-0.2-1.8-0.7-2.3S218.6,163.7,217.7,163.7z"/>
		<path class="st1" d="M227.8,165.2l-1.1,5.4c-0.2,0.8-0.3,1.4-0.3,1.7c0,0.8,0.4,1.2,1.1,1.2c0.4,0,0.8-0.2,1.3-0.5
			s0.8-0.8,1.1-1.4s0.6-1.3,0.7-2.2l0.9-4.1h2l-2,9.7h-1.6l0.2-1.8H230c-0.5,0.7-1,1.2-1.5,1.5s-1.1,0.5-1.7,0.5
			c-0.8,0-1.4-0.2-1.8-0.7s-0.6-1.1-0.6-1.9c0-0.4,0-0.7,0.1-1.1s0.1-0.7,0.2-1.1l1.1-5.1L227.8,165.2L227.8,165.2z"/>
		<path class="st1" d="M238.2,173.4c0.4,0,0.8-0.1,1.3-0.3v1.6c-0.2,0.1-0.5,0.2-0.8,0.3s-0.7,0.1-1.1,0.1c-1.6,0-2.4-0.7-2.4-2.2
			c0-0.3,0-0.7,0.1-1.2l1.1-5H235l0.2-1l1.7-0.7l1.1-2h1.3l-0.5,2.2h2.5l-0.3,1.6h-2.4l-1.1,5c-0.1,0.3-0.1,0.6-0.1,0.8
			c0,0.3,0.1,0.5,0.2,0.6S237.9,173.4,238.2,173.4z"/>
		<path class="st1" d="M255.3,168.8c0,1.2-0.2,2.3-0.6,3.2s-1,1.7-1.8,2.2c-0.7,0.5-1.6,0.8-2.6,0.8c-1.1,0-2-0.3-2.7-1
			s-1-1.6-1-2.7c0-1.2,0.2-2.2,0.6-3.2c0.4-1,1-1.7,1.8-2.3s1.6-0.8,2.6-0.8c1.1,0,2,0.3,2.7,1S255.3,167.7,255.3,168.8z
			 M253.2,168.7c0-0.6-0.1-1.1-0.4-1.5s-0.7-0.5-1.2-0.5s-1,0.2-1.5,0.6c-0.4,0.4-0.8,1-1,1.7s-0.4,1.5-0.4,2.3
			c0,0.7,0.1,1.1,0.4,1.5c0.3,0.3,0.7,0.5,1.3,0.5c0.5,0,1-0.2,1.4-0.6s0.8-1,1-1.7S253.2,169.6,253.2,168.7z"/>
		<path class="st1" d="M255.5,179.2c-0.5,0-1-0.1-1.3-0.2v-1.7c0.4,0.1,0.7,0.2,1,0.2c0.8,0,1.3-0.6,1.6-1.8l1.9-9h-1.6l0.2-0.9
			l1.7-0.7l0.2-0.8c0.3-1.2,0.7-2,1.2-2.5s1.3-0.7,2.3-0.7c0.7,0,1.3,0.1,1.9,0.4l-0.5,1.5c-0.4-0.2-0.8-0.2-1.2-0.2
			c-0.4,0-0.7,0.1-1,0.4s-0.4,0.7-0.6,1.2l-0.2,0.8h2l-0.3,1.6h-2l-2,9.3c-0.2,1.1-0.6,1.9-1.2,2.4S256.3,179.2,255.5,179.2z"/>
		<path class="st1" d="M279.7,174.9h-2.3l-0.3-7.4l-0.1-1.6V165h0c-0.3,0.8-0.6,1.7-1,2.6l-3.4,7.4h-2.3l-0.5-12.8h2l0.2,7.5
			c0,0.8,0,1.8-0.1,3h0.1c0.5-1.3,0.9-2.3,1.2-3.1l3.4-7.4h2l0.3,7.4v1.5v1.7h0.1c0.2-0.5,0.4-1.1,0.6-1.7s0.4-1.1,0.5-1.3l3.1-7.4
			h2.2L279.7,174.9z"/>
		<path class="st1" d="M287.2,175.1c-0.8,0-1.5-0.3-2-0.9s-0.7-1.4-0.7-2.5c0-1.2,0.2-2.3,0.6-3.3s1-1.8,1.7-2.4s1.5-0.9,2.4-0.9
			c0.6,0,1.1,0.1,1.5,0.4s0.7,0.7,1,1.2h0.1l0.5-1.4h1.6l-2.1,9.7h-1.6l0.2-1.5h-0.1C289.4,174.5,288.4,175.1,287.2,175.1z
			 M288,173.4c0.5,0,1-0.2,1.4-0.7s0.8-1.1,1.1-1.8s0.4-1.6,0.4-2.5c0-0.5-0.1-0.9-0.4-1.2s-0.6-0.5-1.1-0.5s-1,0.2-1.4,0.7
			s-0.8,1.1-1.1,1.8s-0.4,1.6-0.4,2.4c0,0.6,0.1,1,0.4,1.3C287.3,173.3,287.6,173.4,288,173.4z"/>
		<path class="st1" d="M298.5,173.4c0.4,0,0.8-0.1,1.3-0.3v1.6c-0.2,0.1-0.5,0.2-0.8,0.3s-0.7,0.1-1.1,0.1c-1.6,0-2.4-0.7-2.4-2.2
			c0-0.3,0-0.7,0.1-1.2l1.1-5h-1.4l0.2-1l1.7-0.7l1.1-2h1.3l-0.5,2.2h2.5l-0.3,1.6h-2.4l-1.1,5c-0.1,0.3-0.1,0.6-0.1,0.8
			c0,0.3,0.1,0.5,0.2,0.6S298.2,173.4,298.5,173.4z"/>
		<path class="st1" d="M305.5,175.1c-1.2,0-2.1-0.3-2.7-1s-1-1.6-1-2.7c0-1.2,0.2-2.2,0.7-3.2s1.1-1.8,1.8-2.3
			c0.8-0.5,1.6-0.8,2.6-0.8c0.9,0,1.7,0.2,2.2,0.6s0.8,1,0.8,1.8c0,1.1-0.5,1.9-1.5,2.5s-2.4,0.9-4.2,0.9H304v0.3v0.3
			c0,0.7,0.2,1.2,0.5,1.5s0.8,0.6,1.5,0.6c0.4,0,0.8-0.1,1.3-0.2s0.9-0.3,1.5-0.6v1.6c-0.6,0.3-1.1,0.4-1.6,0.5
			C306.6,175,306.1,175.1,305.5,175.1z M306.9,166.6c-0.6,0-1.1,0.3-1.6,0.8s-0.9,1.2-1.1,2h0.3c1.1,0,2-0.2,2.6-0.5
			s0.9-0.8,0.9-1.3c0-0.3-0.1-0.5-0.3-0.7S307.2,166.6,306.9,166.6z"/>
		<path class="st1" d="M317.6,165c0.4,0,0.7,0,0.9,0.1l-0.4,1.9c-0.3-0.1-0.6-0.1-0.9-0.1c-0.7,0-1.4,0.3-2,1s-1,1.5-1.2,2.6
			l-0.9,4.4H311l2.1-9.7h1.6l-0.2,1.8h0.1c0.5-0.7,1-1.2,1.5-1.5S317.1,165,317.6,165z"/>
	</g>
	<g>
		<path class="st1" d="M383.3,171.4c0,1.2-0.4,2.1-1.2,2.7s-1.9,1-3.3,1c-1.2,0-2.1-0.2-2.9-0.6v-1.9c1,0.5,1.9,0.8,2.9,0.8
			c0.8,0,1.4-0.2,1.8-0.5s0.7-0.8,0.7-1.3c0-0.4-0.1-0.7-0.3-1c-0.2-0.3-0.7-0.7-1.4-1.1c-0.6-0.4-1-0.7-1.3-1s-0.5-0.6-0.6-1
			s-0.2-0.8-0.2-1.2c0-0.7,0.2-1.3,0.5-1.9c0.3-0.5,0.8-1,1.4-1.3s1.3-0.4,2.1-0.4c1.1,0,2.2,0.3,3.2,0.8l-0.7,1.6
			c-0.9-0.4-1.7-0.6-2.4-0.6c-0.6,0-1.1,0.2-1.5,0.5s-0.5,0.7-0.5,1.3c0,0.3,0,0.5,0.1,0.7s0.2,0.4,0.4,0.5c0.2,0.2,0.5,0.4,1.1,0.8
			c0.9,0.5,1.5,1.1,1.8,1.6C383.1,170.1,383.3,170.7,383.3,171.4z"/>
		<path class="st1" d="M386.7,174.9h-2l2-9.2h2L386.7,174.9z M387.1,163.5c0-0.4,0.1-0.7,0.3-0.9c0.2-0.2,0.5-0.3,0.9-0.3
			c0.3,0,0.5,0.1,0.7,0.2c0.2,0.1,0.3,0.4,0.3,0.7c0,0.4-0.1,0.7-0.3,0.9s-0.5,0.3-0.9,0.3c-0.3,0-0.5-0.1-0.7-0.2
			C387.2,164,387.1,163.8,387.1,163.5z"/>
		<path class="st1" d="M395,174.9l1.2-5.6c0.1-0.5,0.1-0.9,0.1-1.1c0-0.7-0.4-1.1-1.1-1.1c-0.4,0-0.8,0.2-1.2,0.5
			c-0.4,0.3-0.7,0.8-1,1.4c-0.3,0.6-0.5,1.3-0.7,2l-0.8,3.9h-2l2-9.2h1.5l-0.2,1.7h0.1c0.5-0.7,0.9-1.1,1.4-1.4
			c0.5-0.3,1-0.4,1.6-0.4c0.7,0,1.3,0.2,1.7,0.6c0.4,0.4,0.6,1,0.6,1.8c0,0.4-0.1,0.9-0.2,1.5l-1.1,5.4L395,174.9L395,174.9z"/>
		<path class="st1" d="M403.5,175.1c-1.1,0-1.9-0.3-2.5-0.9s-0.9-1.4-0.9-2.5s0.2-2.2,0.6-3.1c0.4-0.9,1-1.7,1.7-2.2
			s1.6-0.8,2.5-0.8s1.7,0.2,2.5,0.5l-0.6,1.5c-0.7-0.3-1.3-0.4-1.8-0.4c-0.8,0-1.5,0.4-2.1,1.3c-0.6,0.8-0.8,1.9-0.8,3.1
			c0,0.6,0.2,1.1,0.5,1.4s0.7,0.5,1.3,0.5c0.4,0,0.8-0.1,1.1-0.2c0.4-0.1,0.7-0.3,1.1-0.4v1.6C405.2,174.9,404.4,175.1,403.5,175.1z
			"/>
		<path class="st1" d="M411.3,175.1c-1.1,0-1.9-0.3-2.6-0.9s-0.9-1.5-0.9-2.6s0.2-2.1,0.6-3.1c0.4-0.9,1-1.7,1.7-2.2
			s1.6-0.8,2.5-0.8s1.6,0.2,2.1,0.6c0.5,0.4,0.7,1,0.7,1.7c0,1-0.5,1.8-1.4,2.4c-0.9,0.6-2.2,0.9-3.9,0.9h-0.4v0.3v0.2
			c0,0.6,0.2,1.1,0.5,1.4s0.8,0.5,1.4,0.5c0.4,0,0.8-0.1,1.2-0.2s0.9-0.3,1.4-0.5v1.6c-0.5,0.2-1,0.4-1.5,0.5
			C412.4,175,411.9,175.1,411.3,175.1z M412.6,167.1c-0.5,0-1,0.2-1.5,0.7s-0.8,1.1-1,1.9h0.2c1,0,1.9-0.1,2.4-0.4
			c0.6-0.3,0.9-0.7,0.9-1.3c0-0.3-0.1-0.5-0.3-0.7C413.2,167.1,412.9,167.1,412.6,167.1z"/>
		<path class="st1" d="M426.1,174.9h-2l1.6-7.2c0.2-0.8,0.4-1.7,0.7-2.7c-0.3,0.3-0.7,0.6-1.1,0.8l-1.6,1l-0.9-1.4l4.2-2.6h1.6
			L426.1,174.9z"/>
		<path class="st1" d="M438.5,166.5c0,1.1-0.2,2.3-0.5,3.4c-0.3,1.2-0.7,2.1-1.3,2.9c-0.5,0.8-1.1,1.3-1.9,1.7
			c-0.7,0.4-1.6,0.6-2.6,0.6c-0.7,0-1.4-0.1-2-0.3v-1.7c0.7,0.2,1.3,0.4,2,0.4c1,0,1.9-0.3,2.5-1s1.1-1.8,1.5-3.2h-0.1
			c-0.6,0.9-1.5,1.3-2.5,1.3c-0.9,0-1.6-0.3-2.1-0.8s-0.8-1.4-0.8-2.4c0-0.9,0.2-1.7,0.6-2.4s0.9-1.3,1.5-1.7
			c0.7-0.4,1.4-0.6,2.3-0.6c1.1,0,1.9,0.3,2.4,1C438.2,164.3,438.5,165.2,438.5,166.5z M435,164.2c-0.5,0-0.9,0.1-1.2,0.4
			s-0.6,0.6-0.8,1.1c-0.2,0.5-0.3,1-0.3,1.5c0,0.6,0.1,1,0.4,1.3s0.6,0.5,1.1,0.5c0.6,0,1.2-0.3,1.6-0.8s0.7-1.2,0.7-2
			c0-0.6-0.1-1.1-0.4-1.4C435.9,164.4,435.5,164.2,435,164.2z"/>
		<path class="st1" d="M444.1,167.4c1,0,1.8,0.3,2.4,0.9c0.6,0.6,0.9,1.4,0.9,2.4c0,0.9-0.2,1.7-0.6,2.3s-1,1.2-1.7,1.6
			c-0.7,0.4-1.6,0.6-2.7,0.6c-1.2,0-2.2-0.2-2.9-0.7v-1.8c0.9,0.6,1.9,0.8,2.8,0.8c1,0,1.7-0.2,2.2-0.7s0.8-1.1,0.8-1.9
			c0-0.6-0.2-1-0.5-1.4s-0.9-0.5-1.6-0.5c-0.5,0-1.1,0.1-1.9,0.3l-0.7-0.6l1.7-5.9h5.9l-0.4,1.7h-4.2l-0.9,3
			C443.3,167.4,443.7,167.4,444.1,167.4z"/>
		<path class="st1" d="M457.6,165.3c0,0.9-0.3,1.6-0.8,2.2s-1.3,1-2.2,1.1v0.1c0.7,0.1,1.2,0.4,1.6,0.9s0.6,1,0.6,1.7
			s-0.2,1.4-0.6,2s-0.9,1-1.6,1.3s-1.6,0.5-2.5,0.5c-1.2,0-2.3-0.2-3.2-0.7v-1.8c0.5,0.3,1,0.5,1.5,0.6c0.6,0.1,1.1,0.2,1.6,0.2
			c0.9,0,1.5-0.2,2-0.6c0.5-0.4,0.7-0.9,0.7-1.6c0-1.2-0.8-1.8-2.3-1.8h-1.1l0.3-1.5h0.9c0.9,0,1.6-0.2,2.2-0.6
			c0.6-0.4,0.9-1,0.9-1.7c0-0.4-0.1-0.8-0.4-1c-0.3-0.3-0.7-0.4-1.2-0.4c-0.4,0-0.8,0.1-1.2,0.2c-0.4,0.1-0.9,0.4-1.3,0.7l-0.9-1.3
			c0.7-0.4,1.3-0.8,1.9-0.9c0.6-0.2,1.2-0.3,1.9-0.3c1,0,1.8,0.2,2.4,0.7C457.3,163.8,457.6,164.5,457.6,165.3z"/>
	</g>
</g>
</svg>
