<?xml version="1.0" encoding="UTF-8"?> <!-- Generator: Adobe Illustrator 24.2.1, SVG Export Plug-In . SVG Version: 6.00 Build 0) --> <svg xmlns="http://www.w3.org/2000/svg" xmlns:xlink="http://www.w3.org/1999/xlink" version="1.1" id="Layer_1" x="0px" y="0px" viewBox="0 0 200.8 66.7" style="enable-background:new 0 0 200.8 66.7;" xml:space="preserve"> <style type="text/css"> .st0{fill:#034EA2;} </style> <path class="st0" d="M200.7,15.9C197.9,0.2,150.8-4.7,95.4,4.9C72.2,9,51.2,15,34.8,21.7c2.5,0.1,4.4,0.6,5.5,1.8 c0.9,0.9,1.3,2.1,1.3,3.6v1.6h-5.4v-1.4c0-1.1-0.7-1.9-1.9-1.9c-1,0-1.7,0.5-1.9,1.4c-0.1,0.3-0.1,0.7,0,1.1 c0.6,2.4,8.6,3.8,9.5,8.2c0.1,0.6,0.3,1.8,0,3.5c-0.5,3.5-3.6,4.9-7.6,4.9c-5.5,0-7.8-2.6-7.8-6.2l0-1.7h5.8l0,2.1 c0,1.2,0.9,1.9,2,1.9c1.1,0,1.8-0.5,2-1.4c0.1-0.4,0.2-1,0-1.5c-1.1-2.7-8.6-4-9.5-8.3c-0.2-1-0.2-1.8-0.1-2.9 c0.1-0.6,0.3-1.1,0.5-1.5C9.3,33.4-1.3,42.7,0.1,50.8C2.9,66.5,50,71.4,105.3,61.7c24.3-4.2,46.2-10.6,62.9-17.7c-0.2,0-0.5,0-0.7,0 c-3.8,0-7.2-1.4-7.5-5.3c-0.1-0.7-0.1-1-0.1-1.4l0-8.9c0-0.4,0-1.1,0.1-1.4c0.4-3.7,3.4-5.3,7.5-5.3c3.2,0,7.1,0.9,7.5,5.3 c0.1,0.6,0.1,1.1,0,1.3c0,0,0,0,0,0v0.8h-5.5V28v0c0,0,0-0.5-0.1-0.8c-0.1-0.4-0.5-1.5-2-1.5c-1.5,0-1.9,1-2,1.5 c-0.1,0.2-0.1,0.6-0.1,1v9.7c0,0.3,0,0.6,0,0.8c0,0.2,0.3,1.5,2.1,1.5c1.8,0,2.1-1.3,2.1-1.5c0-0.3,0.1-0.6,0.1-0.8v-3h-2.2v-3.2 h7.6c0,0,0,5.7,0,5.7c0,0.4,0,0.7-0.1,1.4c-0.1,1-0.4,1.9-0.9,2.6C191.8,33,202,23.8,200.7,15.9z M57.1,43.7l-2.8-18.9h-0.1 l-2.8,18.9h-5.9l3.9-21.3H59l3.9,21.3H57.1z M85.2,43.7l-0.1-18.5H85l-3.4,18.5h-5.5l-3.4-18.5h-0.1l-0.1,18.5H67l0.5-21.3h8.8 l2.6,15.8h0.1l2.6-15.8h8.8l0.5,21.3H85.2z M110.9,39.5c-0.6,4.1-4.6,4.8-7.5,4.8c-4.7,0-7.7-2-7.7-6.2l0-1.7h5.8l0,2.1 c0,1.1,0.8,1.8,2,1.8c1.1,0,1.8-0.4,2-1.4c0.1-0.4,0.1-1,0-1.5c-1.1-2.7-8.5-4-9.4-8.3c-0.2-1-0.2-1.8-0.1-2.8 c0.6-3.9,4.4-4.7,7.4-4.7c2.7,0,4.7,0.6,5.8,1.8c0.9,0.9,1.3,2.1,1.3,3.6v1.5h-5.4v-1.4c0-1.2-0.7-1.8-1.9-1.8c-1,0-1.7,0.5-1.9,1.4 c0,0.2-0.1,0.6,0,1.1c0.6,2.4,8.6,3.8,9.4,8.2C111,36.6,111.1,37.8,110.9,39.5z M130.8,37.6c0,0.4,0,1.2-0.1,1.4 c-0.3,3.5-2.8,5.3-7.4,5.3c-4.6,0-7.1-1.8-7.5-5.3c0-0.2-0.1-1-0.1-1.4V22.3h5.5v15.7c0,0.4,0,0.6,0,0.8c0.1,0.4,0.4,1.5,2,1.5 c1.5,0,1.9-1.1,2-1.5c0-0.2,0-0.5,0-0.8V22.3h5.5C130.8,22.3,130.8,37.6,130.8,37.6z M154.5,43.4h-7.7l-5.1-16.9h-0.1l0.3,16.9h-5.3 V22.3h8l4.8,16.2h0.1l-0.3-16.2h5.4V43.4z"></path> </svg> 