<?xml version="1.0" encoding="utf-8"?>
<!-- Generator: Adobe Illustrator 24.0.0, SVG Export Plug-In . SVG Version: 6.00 Build 0)  -->
<svg version="1.1" id="Layer_1" xmlns="http://www.w3.org/2000/svg" xmlns:xlink="http://www.w3.org/1999/xlink" x="0px" y="0px"
	 viewBox="0 0 528 348" style="enable-background:new 0 0 528 348;" xml:space="preserve">
<style type="text/css">
	.st0{fill:#4E5663;}
</style>
<path class="st0" d="M264.6,0c75,0,150,0,224.9,0C512.8,0,528,15.2,528,38.4c0,90.3,0,180.6,0,270.9c0,23.5-15.2,38.6-38.8,38.6
	c-150.1,0-300.3,0-450.4,0C15.1,348,0,332.9,0,309.3C0,219.2,0,129,0,38.9C0,15,15.1,0,39.1,0C114.3,0,189.4,0,264.6,0z M484.7,24.4
	c-147.5,0-294.1,0-441.4,0c1.8,1.7,3,2.8,4.3,3.9c67.5,60.5,135.1,120.9,202.6,181.4c9,8,18.5,8,27.5,0
	c46.6-41.7,93.1-83.3,139.7-125C439.7,64.8,461.9,44.9,484.7,24.4z M485.4,323.8c-50.1-45.3-99.3-89.9-148.6-134.6
	c-1.5,1.2-2.6,2.2-3.7,3.1c-13.5,12.1-27,24.2-40.6,36.3c-17.5,15.5-39.5,15.6-56.9,0.1c-13.6-12-27.1-24.2-40.6-36.3
	c-1.2-1.1-2.5-2-3.9-3.2c-49.4,44.8-98.6,89.3-148.5,134.5C190.6,323.8,337.3,323.8,485.4,323.8z M503.7,39.6
	c-50.1,44.9-99.4,89.1-149,133.5c49.8,45.1,99.1,89.7,149,134.9C503.7,218.2,503.7,129.4,503.7,39.6z M24.3,308
	c50-45.3,99.4-90,149-134.9c-49.7-44.6-99-88.7-149-133.4C24.3,129.4,24.3,218.2,24.3,308z"/>
</svg>
