<?xml version="1.0" encoding="utf-8"?>
<!-- Generator: Adobe Illustrator 24.1.0, SVG Export Plug-In . SVG Version: 6.00 Build 0)  -->
<svg version="1.1" id="Layer_1" xmlns="http://www.w3.org/2000/svg" xmlns:xlink="http://www.w3.org/1999/xlink" x="0px" y="0px"
	 viewBox="0 0 74.1 74.1" style="enable-background:new 0 0 74.1 74.1;" xml:space="preserve">
<style type="text/css">
	.st0{fill:none;}
	.st1{fill:#8BB74D;}
	.st2{fill:#F3F3F3;}
	.st3{fill:#FFFFFF;}
</style>
<g>
	<g>
		<path class="st0" d="M37,72.2c18.7,0,33.8-15.1,33.8-33.8C70.9,19.7,55.7,4.5,37,4.5C18.3,4.5,3.2,19.6,3.2,38.3
			C3.2,57,18.3,72.2,37,72.2z"/>
		<path class="st1" d="M37,72.2C18.3,72.2,3.2,57,3.2,38.3C3.2,19.6,18.3,4.5,37,4.5c18.7,0,33.9,15.2,33.8,33.8
			C70.8,57.1,55.7,72.2,37,72.2z M15.7,21.8C7.5,32.2,8,47.8,18.2,57.7c10.7,10.3,26.2,9.4,35.3,2c-1.7-1.7-3.4-3.5-5.2-5.2
			c-2.7,1.9-5.9,2.7-9.2,3c0,2.2,0,4.3,0,6.4c-1.4,0-2.8,0-4.3,0c0-2.1,0-4.2,0-6.3c-0.8,0-1.6-0.1-2.4-0.1
			c-3.5-0.3-6.9-0.9-10.1-2.3c-0.3-0.1-0.4-0.3-0.4-0.6c0-2.4,0-4.7,0-7.1c0-0.1,0-0.3,0-0.5c4.1,1.9,8.3,3.1,12.8,3.5
			c0-0.2,0-0.3,0-0.4c0-2.8,0-5.6,0-8.5c0-0.3-0.1-0.5-0.4-0.6c-2.2-0.9-4.4-1.7-6.4-2.9c-1.4-0.8-2.6-1.7-3.7-2.9
			c-1.7-1.9-2.3-4.2-2.4-6.7c0-0.2-0.1-0.4-0.2-0.5c-0.8-0.9-1.7-1.7-2.5-2.5C18.1,24.2,16.9,23,15.7,21.8z M58.4,54.9
			C66.6,44.5,66,28.9,56,19.1C45.6,8.9,30.1,9.3,20.5,17c1.5,1.5,3,3,4.6,4.5c2.8-2.4,6.2-3.2,9.8-3.7c0-1.5,0-2.9,0-4.3
			c1.4,0,2.8,0,4.3,0c0,1.4,0,2.8,0,4.2c4.4,0.2,8.5,1,12.5,2.8c-1,2.4-1.9,4.7-2.8,7.1c-3.1-1.3-6.3-2.1-9.7-2.4c0,0.1,0,0.2,0,0.3
			c0,2.8,0,5.5,0,8.3c0,0.3,0.1,0.4,0.3,0.5c1.2,0.5,2.3,1,3.4,1.5c1.8,0.8,3.6,1.5,5.1,2.7c1.3,1,2.5,2.1,3.3,3.6
			c1.1,2,1.2,4.2,0.9,6.4c0,0.3,0,0.5,0.2,0.7c1.9,1.9,3.8,3.7,5.6,5.6C58.2,54.7,58.3,54.8,58.4,54.9z M34.9,25.2
			c-0.7,0.2-1.4,0.4-2,0.7c-0.6,0.3-1.2,0.7-1.5,1.3c-0.2,0.3-0.2,0.6,0.1,0.9c1.1,1,2.1,2.1,3.1,3.1c0.1,0.1,0.2,0.2,0.4,0.3
			C34.9,29.4,34.9,27.4,34.9,25.2z M39.2,50.3c1.3-0.3,2.5-0.6,3.3-1.5c-1.1-1.1-2.2-2.2-3.3-3.3C39.2,47.1,39.2,48.7,39.2,50.3z"/>
		<path class="st2" d="M15.7,21.8c1.2,1.2,2.4,2.4,3.6,3.6c0.8,0.8,1.7,1.7,2.5,2.5c0.1,0.1,0.2,0.3,0.2,0.5c0,2.5,0.7,4.8,2.4,6.7
			c1,1.2,2.3,2.1,3.7,2.9c2,1.2,4.2,2.1,6.4,2.9c0.3,0.1,0.4,0.3,0.4,0.6c0,2.8,0,5.6,0,8.5c0,0.1,0,0.3,0,0.4
			c-4.5-0.4-8.7-1.6-12.8-3.5c0,0.2,0,0.4,0,0.5c0,2.4,0,4.7,0,7.1c0,0.3,0.1,0.5,0.4,0.6c3.2,1.4,6.6,2.1,10.1,2.3
			c0.8,0.1,1.5,0.1,2.4,0.1c0,2.1,0,4.2,0,6.3c1.4,0,2.8,0,4.3,0c0-2.1,0-4.3,0-6.4c3.3-0.4,6.4-1.1,9.2-3c1.7,1.8,3.5,3.5,5.2,5.2
			c-9.1,7.4-24.7,8.3-35.3-2C8,47.8,7.5,32.2,15.7,21.8z"/>
		<path class="st0" d="M58.4,54.9c-0.1-0.1-0.2-0.2-0.3-0.3c-1.9-1.9-3.7-3.8-5.6-5.6c-0.2-0.2-0.3-0.4-0.2-0.7
			c0.3-2.2,0.2-4.4-0.9-6.4c-0.8-1.5-2-2.6-3.3-3.6c-1.6-1.1-3.4-1.9-5.1-2.7c-1.1-0.5-2.3-1-3.4-1.5c-0.2-0.1-0.3-0.2-0.3-0.5
			c0-2.8,0-5.5,0-8.3c0-0.1,0-0.2,0-0.3c3.4,0.2,6.5,1,9.7,2.4c0.9-2.4,1.9-4.7,2.8-7.1c-4-1.8-8.2-2.6-12.5-2.8c0-1.4,0-2.8,0-4.2
			c-1.4,0-2.8,0-4.3,0c0,1.4,0,2.8,0,4.3c-3.6,0.6-7.1,1.3-9.8,3.7c-1.5-1.5-3-3-4.6-4.5c9.6-7.7,25.1-8.1,35.5,2.2
			C66,28.9,66.6,44.5,58.4,54.9z"/>
		<path class="st3" d="M34.9,25.2c0,2.2,0,4.2,0,6.3c-0.2-0.1-0.3-0.2-0.4-0.3c-1-1-2-2.1-3.1-3.1c-0.3-0.3-0.3-0.6-0.1-0.9
			c0.4-0.6,0.9-1.1,1.5-1.3C33.5,25.6,34.1,25.4,34.9,25.2z"/>
		<path class="st3" d="M39.2,50.3c0-1.7,0-3.3,0-4.8c1.1,1.1,2.2,2.2,3.3,3.3C41.6,49.7,40.5,50,39.2,50.3z"/>
	</g>
	
		<rect x="32.4" y="-10.7" transform="matrix(0.7071 -0.7071 0.7071 0.7071 -15.3462 37.049)" class="st1" width="9.2" height="95.6"/>
</g>
</svg>
